#!OML:ASF H:\Punching\Project 1\Capture day 1\Session 1\female.ASF
:FULLY-SPECIFIED
:DEGREES
1799
root -1.73702 15.327 5.78743 18.5504 11.7656 1.17793
lowerback 3.54087 0.170101 3.51369
upperback -3.61023 0.521749 1.33688
thorax -5.71909 0.145647 -0.624658
lowerneck -9.63922 1.93218 9.08744
upperneck 36.0247 2.29828 -4.2968
head 14.0595 1.74422 -3.0094
rclavicle -2.16675e-014 -2.38542e-014
rhumerus 7.98942 26.1115 -78.2999
rradius 136.115
rwrist -43.83
rhand -18.3193 -7.83971
rfingers 7.12502
rthumb 7.96212 -37.6697
lclavicle -2.16675e-014 -2.38542e-014
lhumerus 9.1704 -31.326 73.0127
lradius 137.783
lwrist 18.3253
lhand -22.3619 18.8568
lfingers 7.12502
lthumb 4.05933 48.7979
rfemur -44.8085 3.09888 9.72675
rtibia 41.9279
rfoot -11.3851 -12.6917
rtoes -1.82822
lfemur 2.36264 -19.9086 -0.0933478
ltibia 4.78823
lfoot -1.43742 8.57104
ltoes -30.8011
1800
root -1.76874 15.3279 5.80373 18.7385 11.4056 0.977639
lowerback 3.56897 0.0897177 3.56441
upperback -3.58481 0.420576 1.39471
thorax -5.71256 0.0949914 -0.584576
lowerneck -9.68192 2.08435 9.27169
upperneck 35.9204 2.49673 -4.39755
head 14.0456 1.83481 -3.05299
rclavicle -1.25234e-014 1.03368e-014
rhumerus 7.67605 26.1536 -78.307
rradius 135.815
rwrist -43.6856
rhand -18.1343 -7.82049
rfingers 7.12502
rthumb 8.14073 -37.6437
lclavicle -1.25234e-014 1.03368e-014
lhumerus 8.83412 -30.9322 73.0853
lradius 136.985
lwrist 17.9074
lhand -22.3049 18.9777
lfingers 7.12502
lthumb 4.11435 48.9178
rfemur -45.12 3.28473 10.0741
rtibia 41.8386
rfoot -11.2973 -12.5199
rtoes -1.87854
lfemur 2.20351 -19.572 0.180085
ltibia 5.00411
lfoot -1.23586 8.55105
ltoes -30.7698
1801
root -1.80233 15.3289 5.82287 18.9104 11.0443 0.727778
lowerback 3.59827 0.00660176 3.64753
upperback -3.55375 0.318665 1.47147
thorax -5.70091 0.0432127 -0.542823
lowerneck -9.73596 2.24211 9.44708
upperneck 35.8164 2.70101 -4.49025
head 14.0356 1.92751 -3.09067
rclavicle 1.59028e-015 -1.03368e-014
rhumerus 7.34099 26.1519 -78.2946
rradius 135.461
rwrist -43.5662
rhand -17.8892 -7.83117
rfingers 7.12502
rthumb 8.37726 -37.645
lclavicle 1.59028e-015 -1.03368e-014
lhumerus 8.48148 -30.4477 73.1586
lradius 136.066
lwrist 17.4587
lhand -22.0537 19.1125
lfingers 7.12502
lthumb 4.35689 49.0477
rfemur -45.4179 3.48927 10.4893
rtibia 41.7695
rfoot -11.2341 -12.3466
rtoes -1.95044
lfemur 1.80519 -19.2183 0.510813
ltibia 5.74806
lfoot -1.26821 8.492
ltoes -30.7066
1802
root -1.83781 15.33 5.84502 19.064 10.6759 0.434844
lowerback 3.63043 -0.072477 3.76451
upperback -3.53232 0.225296 1.55681
thorax -5.70086 -0.00575933 -0.511685
lowerneck -9.74686 2.39443 9.61678
upperneck 35.7088 2.89822 -4.56932
head 14.014 2.01852 -3.12253
rclavicle 5.96354e-016 -1.51076e-014
rhumerus 6.92748 26.1061 -78.2904
rradius 135.044
rwrist -43.4461
rhand -17.559 -7.87385
rfingers 7.12502
rthumb 8.69596 -37.6747
lclavicle 5.96354e-016 -1.51076e-014
lhumerus 8.06544 -29.919 73.2496
lradius 135.04
lwrist 16.9995
lhand -21.6531 19.2824
lfingers 7.12502
lthumb 4.74376 49.2093
rfemur -45.6773 3.71536 10.9634
rtibia 41.6699
rfoot -11.1661 -12.1647
rtoes -2.0308
lfemur 1.47928 -18.8483 0.872271
ltibia 6.42341
lfoot -1.23715 8.44094
ltoes -30.6239
1803
root -1.87521 15.331 5.87045 19.196 10.2943 0.112005
lowerback 3.66453 -0.144118 3.90053
upperback -3.51221 0.143611 1.6476
thorax -5.70311 -0.0496232 -0.486397
lowerneck -9.73316 2.54094 9.77857
upperneck 35.6023 3.08802 -4.63838
head 13.9872 2.10691 -3.1499
rclavicle -5.36719e-015 1.51076e-014
rhumerus 6.45255 26.0117 -78.2785
rradius 134.547
rwrist -43.3213
rhand -17.1496 -7.96465
rfingers 7.12502
rthumb 9.09095 -37.7487
lclavicle -5.36719e-015 1.51076e-014
lhumerus 7.60414 -29.3575 73.3528
lradius 133.905
lwrist 16.5526
lhand -21.1707 19.4941
lfingers 7.12502
lthumb 5.20952 49.41
rfemur -45.8942 3.96552 11.4798
rtibia 41.5455
rfoot -11.1019 -11.9725
rtoes -2.08352
lfemur 1.2429 -18.4634 1.24654
ltibia 7.01357
lfoot -1.13387 8.40103
ltoes -30.5045
1804
root -1.91459 15.3319 5.89897 19.312 9.89293 -0.218239
lowerback 3.70468 -0.214377 4.02506
upperback -3.49214 0.0637124 1.74295
thorax -5.70887 -0.0920698 -0.449975
lowerneck -9.71355 2.69041 9.93368
upperneck 35.5073 3.28382 -4.7051
head 13.9653 2.19768 -3.17448
rclavicle -1.68967e-014 0
rhumerus 5.91916 25.8974 -78.2644
rradius 133.956
rwrist -43.1706
rhand -16.651 -8.11516
rfingers 7.12502
rthumb 9.57205 -37.8777
lclavicle -1.68967e-014 0
lhumerus 7.09319 -28.7565 73.4598
lradius 132.671
lwrist 16.1267
lhand -20.6761 19.7363
lfingers 7.12502
lthumb 5.68704 49.64
rfemur -46.0757 4.23559 12.0129
rtibia 41.4057
rfoot -11.0434 -11.7666
rtoes -2.12089
lfemur 1.09414 -18.0648 1.61003
ltibia 7.51462
lfoot -0.950545 8.37397
ltoes -30.3948
1805
root -1.95619 15.3327 5.93031 19.4134 9.47187 -0.5453
lowerback 3.75051 -0.278451 4.13282
upperback -3.46717 -0.00902184 1.83336
thorax -5.71243 -0.130307 -0.409844
lowerneck -9.71192 2.8403 10.0865
upperneck 35.4316 3.47686 -4.76481
head 13.9566 2.28817 -3.19652
rclavicle 4.17448e-015 3.97569e-015
rhumerus 5.33669 25.7503 -78.2464
rradius 133.259
rwrist -42.9803
rhand -16.0397 -8.32332
rfingers 7.12502
rthumb 10.1619 -38.0579
lclavicle 4.17448e-015 3.97569e-015
lhumerus 6.55332 -28.1379 73.5591
lradius 131.342
lwrist 15.7318
lhand -20.2018 20.015
lfingers 7.12502
lthumb 6.14498 49.9059
rfemur -46.225 4.52562 12.5497
rtibia 41.2585
rfoot -10.9959 -11.5495
rtoes -2.12452
lfemur 1.02034 -17.6565 1.95497
ltibia 7.9421
lfoot -0.686361 8.36446
ltoes -30.2979
1806
root -1.99956 15.3339 5.96429 19.5067 9.0388 -0.845741
lowerback 3.79873 -0.345259 4.20518
upperback -3.43596 -0.0880681 1.91768
thorax -5.71078 -0.170222 -0.355663
lowerneck -9.73446 2.99589 10.2367
upperneck 35.3753 3.67716 -4.82606
head 13.9634 2.3814 -3.21791
rclavicle 1.88845e-014 -8.74653e-015
rhumerus 4.71669 25.5925 -78.2218
rradius 132.444
rwrist -42.7465
rhand -15.3521 -8.60362
rfingers 7.12502
rthumb 10.8251 -38.3046
lclavicle 1.88845e-014 -8.74653e-015
lhumerus 5.9815 -27.5041 73.6474
lradius 129.931
lwrist 15.3454
lhand -19.7696 20.3402
lfingers 7.12502
lthumb 6.56225 50.2185
rfemur -46.3423 4.80852 13.0716
rtibia 41.1113
rfoot -10.9641 -11.3122
rtoes -2.13958
lfemur 0.990791 -17.2516 2.26077
ltibia 8.33064
lfoot -0.345762 8.37816
ltoes -30.2008
1807
root -2.04484 15.3357 6.00025 19.6011 8.59977 -1.11213
lowerback 3.8467 -0.413625 4.2449
upperback -3.40622 -0.172063 1.98629
thorax -5.71039 -0.211658 -0.299051
lowerneck -9.77103 3.15283 10.3898
upperneck 35.3358 3.87535 -4.88095
head 13.9815 2.47512 -3.23766
rclavicle 2.22639e-014 6.36111e-015
rhumerus 4.04684 25.4229 -78.209
rradius 131.506
rwrist -42.4577
rhand -14.5475 -8.91733
rfingers 7.12502
rthumb 11.6012 -38.5762
lclavicle 2.22639e-014 6.36111e-015
lhumerus 5.37224 -26.891 73.7173
lradius 128.443
lwrist 14.9195
lhand -19.3749 20.7348
lfingers 7.12502
lthumb 6.9433 50.601
rfemur -46.4386 5.08132 13.5679
rtibia 40.9657
rfoot -10.9464 -11.0591
rtoes -2.15264
lfemur 0.965001 -16.854 2.52787
ltibia 8.72073
lfoot 0.0705049 8.42162
ltoes -30.079
1808
root -2.09202 15.3385 6.03764 19.7046 8.15976 -1.34184
lowerback 3.88835 -0.485598 4.25097
upperback -3.38063 -0.264063 2.04011
thorax -5.71061 -0.256092 -0.238236
lowerneck -9.81659 3.31205 10.5459
upperneck 35.3089 4.0746 -4.93337
head 14.0082 2.57013 -3.2568
rclavicle -3.4191e-014 1.51076e-014
rhumerus 3.32217 25.2512 -78.2192
rradius 130.445
rwrist -42.1137
rhand -13.6057 -9.27078
rfingers 7.12502
rthumb 12.5093 -38.8763
lclavicle -3.4191e-014 1.51076e-014
lhumerus 4.73187 -26.2969 73.7665
lradius 126.861
lwrist 14.4439
lhand -19.0169 21.1577
lfingers 7.12502
lthumb 7.28887 51.0121
rfemur -46.5232 5.34137 14.034
rtibia 40.8208
rfoot -10.9394 -10.7919
rtoes -2.16387
lfemur 0.905247 -16.4654 2.75977
ltibia 9.15107
lfoot 0.55488 8.50145
ltoes -29.8917
1809
root -2.1407 15.3426 6.07675 19.8097 7.72519 -1.53792
lowerback 3.92631 -0.560857 4.23697
upperback -3.35951 -0.362834 2.07472
thorax -5.71338 -0.303596 -0.18548
lowerneck -9.8497 3.47159 10.717
upperneck 35.2775 4.27334 -4.98957
head 14.0312 2.66646 -3.27995
rclavicle 4.37326e-015 -2.78299e-014
rhumerus 2.52586 25.0818 -78.2652
rradius 129.27
rwrist -41.7103
rhand -12.4906 -9.59448
rfingers 7.12502
rthumb 13.5842 -39.1313
lclavicle 4.37326e-015 -2.78299e-014
lhumerus 4.05217 -25.7404 73.7934
lradius 125.174
lwrist 13.8744
lhand -18.6987 21.6138
lfingers 7.12502
lthumb 7.59598 51.4573
rfemur -46.5822 5.58977 14.4724
rtibia 40.6688
rfoot -10.9421 -10.5179
rtoes -2.15146
lfemur 0.791797 -16.0921 2.95689
ltibia 9.66337
lfoot 1.10214 8.62202
ltoes -29.6137
1810
root -2.18998 15.3488 6.11745 19.9167 7.30362 -1.69744
lowerback 3.95608 -0.642249 4.21651
upperback -3.34405 -0.471748 2.08612
thorax -5.71763 -0.356472 -0.15229
lowerneck -9.87325 3.62977 10.8958
upperneck 35.2523 4.46709 -5.03874
head 14.0554 2.76278 -3.30232
rclavicle -2.18663e-015 -1.70955e-014
rhumerus 1.67209 24.9148 -78.3493
rradius 127.973
rwrist -41.2653
rhand -11.1992 -9.95105
rfingers 7.12502
rthumb 14.8286 -39.4005
lclavicle -2.18663e-015 -1.70955e-014
lhumerus 3.33954 -25.1963 73.7938
lradius 123.347
lwrist 13.2527
lhand -18.4157 21.9894
lfingers 7.12502
lthumb 7.86912 51.8229
rfemur -46.6087 5.80837 14.8838
rtibia 40.5014
rfoot -10.9478 -10.2295
rtoes -2.13098
lfemur 0.605612 -15.7408 3.11409
ltibia 10.278
lfoot 1.71305 8.78932
ltoes -29.2413
